# xmcd
#
# Track frame offsets: 
#        150
#        22511
#        37935
#        55876
#        71026
#        98108
#        109497
#        130275
#        153534
#        171619
#        191109
#        211291
#        221583
#        240322
#        259853
#        272423
#        295532
#        309481
#        327796
#
# Disc length: 4700 seconds
#
# Revision: 0
# Processed by: cddbd v1.5.2PL0 Copyright (c) Steve Scherf et al.
# Submitted via: ExactAudioCopy v1.0b3
#
DISCID=12125a13
DTITLE=Polskie Radio - Muzyka Zrodel - 26 - Dolny Śląsk - CD I - PIEŚN
DTITLE=I
DYEAR=2008
DGENRE=Folk
TTITLE0=Tam pod lasem pod podolskim
TTITLE1=Jedzie szlachta na trzy trakta
TTITLE2=Szumniała leszczyna, ułani jechali
TTITLE3=Cienka koszul inka szyta dołu krajem
TTITLE4=Do Praszburga za wojoczka mnie wziori
TTITLE5=Ja z Francyi jadę, szabelkę toczę
TTITLE6=Rozbujały się siwe gołębisie po roli
TTITLE7=Na zielonej horce szubieniczki
TTITLE8=W szczyrym polu grusza stoi
TTITLE9=Ścieni dąbek, ścieni
TTITLE10=Tam wysoko na dębie tam gruchały gołębie
TTITLE11=Na syrbiańskim moście
TTITLE12=Wyjrzyjcież mi moja mamo za ten nowy dwór
TTITLE13=Ej na tej łące, na tej zielonej
TTITLE14=Koło ogródeczka rosła jabłoneczka
TTITLE15=Pójdę ja se do boru tego
TTITLE16=Stała się nam nowina, pani zabiła pana
TTITLE17=A w tym nowym dworze nowina się stała
TTITLE18=Posłuchajcie ludzie me
EXTD=
EXTT0=
EXTT1=
EXTT2=
EXTT3=
EXTT4=
EXTT5=
EXTT6=
EXTT7=
EXTT8=
EXTT9=
EXTT10=
EXTT11=
EXTT12=
EXTT13=
EXTT14=
EXTT15=
EXTT16=
EXTT17=
EXTT18=
PLAYORDER=
